<?xml version="1.0" encoding="utf-8"?>
<!-- Generator: Adobe Illustrator 27.0.1, SVG Export Plug-In . SVG Version: 6.00 Build 0)  -->
<svg version="1.1" xmlns="http://www.w3.org/2000/svg" xmlns:xlink="http://www.w3.org/1999/xlink" x="0px" y="0px"
	 viewBox="0 0 361.9 55.7" style="enable-background:new 0 0 361.9 55.7;" xml:space="preserve">
<style type="text/css">
	.st0{fill:#1A437E;}
	.st1{fill:#FFFFFF;}
	.st2{fill:none;stroke:#1D1D1B;stroke-width:10;stroke-miterlimit:10;}
	.st3{fill:#1D1D1B;}
	.st4{display:none;}
	.st5{display:inline;fill:#54C4F0;}
</style>
<g id="Ebene_1">
	<g>
		<path class="st0" d="M189.63,35.33V7.06c0-3.86-3.13-6.99-6.99-6.99H7.24c-3.86,0-6.99,3.13-6.99,6.99v41.59
			c0,3.86,3.13,6.99,6.99,6.99h162.08L189.63,35.33z"/>
		<g>
			<path class="st1" d="M16.69,15.48h9.53c2.88,0,4.37,0.42,5.62,1.53c1.25,1.11,1.98,2.95,1.98,5.1c0,2.43-0.73,4.02-2.36,5.2
				c0.1,0.07,0.21,0.17,0.35,0.24c0.94,0.73,1.25,1.07,1.59,1.73c0.59,1.11,0.87,2.5,0.87,4.09c0,2.5-0.76,4.4-2.25,5.55
				c-1.25,0.97-2.63,1.32-5.3,1.32H16.69V15.48z M25.92,25.78c2.36,0,3.4-1.01,3.4-3.33s-1.04-3.33-3.4-3.33H21.2v6.66H25.92z
				 M26.4,36.59c2.36,0,3.36-1.07,3.36-3.57c0-2.5-1.04-3.61-3.36-3.61h-5.2v7.18H26.4z"/>
			<path class="st1" d="M43.14,40.23H38.6V15.48h9.12c3.19,0,4.92,0.52,6.24,1.8c1.21,1.25,1.77,2.88,1.77,5.37
				c0,4.16-1.39,6.24-4.68,7.07l5.41,10.5h-5.03l-4.78-10.12h-3.5V40.23z M47.41,26.57c2.7,0,3.81-1.11,3.81-3.71
				c0-2.67-1.14-3.74-3.95-3.74h-4.19v7.45H47.41z"/>
			<path class="st1" d="M65.82,35.35l-1.59,4.89H59.3l8.98-24.75h4.4l8.98,24.75h-4.92l-1.56-4.89H65.82z M70.5,20.89l-3.61,10.82
				h7.18L70.5,20.89z"/>
			<path class="st1" d="M84.57,15.48h4.4l9.88,17.13V15.48h4.4v24.75h-4.4l-9.88-17.13v17.13h-4.4V15.48z"/>
			<path class="st1" d="M108.31,15.48h8.39c6.48-0.1,9.57,3.05,9.4,9.6v5.55c0.17,6.55-2.88,9.67-9.4,9.6h-8.39V15.48z
				 M115.91,36.59c4.19,0.07,5.58-1.49,5.65-6.31v-4.85c-0.07-4.82-1.46-6.38-5.65-6.31h-3.05v17.47H115.91z"/>
			<path class="st1" d="M134.25,34.58l-1.98,5.65h-2.36L139,15.48h2.01l9.08,24.75h-2.36l-1.98-5.65H134.25z M140,18.36l-5.17,14.42
				h10.33L140,18.36z"/>
			<path class="st1" d="M154.46,15.48h7.66c5.86-0.1,8.94,3.22,8.81,9.36v6.03c0.14,6.14-2.95,9.43-8.81,9.36h-7.66V15.48z
				 M161.81,38.43c4.71,0.1,7.04-2.5,6.97-7.8v-5.58c0.07-5.27-2.25-7.87-6.97-7.77h-5.2v21.15H161.81z"/>
		</g>
	</g>
	<g>
		<path class="st3" d="M222.3,25.75c0,3.12-0.82,5.47-2.45,7.07c-1.63,1.6-4.03,2.39-7.2,2.39h-4.44V16.64h5.02
			c2.96,0,5.22,0.77,6.76,2.32C221.52,20.52,222.3,22.78,222.3,25.75z M220.89,25.8c0-2.66-0.68-4.66-2.03-6
			c-1.35-1.34-3.33-2.01-5.95-2.01h-3.42v16.28h3.07C218.11,34.07,220.89,31.31,220.89,25.8z"/>
		<path class="st3" d="M231.82,35.46c-2.01,0-3.57-0.62-4.69-1.85c-1.12-1.24-1.68-2.97-1.68-5.19c0-2.2,0.54-3.96,1.63-5.29
			c1.08-1.32,2.54-1.99,4.38-1.99c1.63,0,2.91,0.57,3.85,1.7c0.94,1.13,1.41,2.67,1.41,4.62v1.02h-9.94
			c0.02,1.9,0.46,3.34,1.33,4.34c0.87,1,2.11,1.5,3.73,1.5c0.79,0,1.48-0.06,2.08-0.17c0.6-0.11,1.35-0.35,2.27-0.71v1.14
			c-0.78,0.34-1.5,0.57-2.16,0.69C233.35,35.4,232.62,35.46,231.82,35.46z M231.45,22.26c-1.33,0-2.4,0.44-3.2,1.31
			c-0.8,0.88-1.27,2.14-1.41,3.79h8.53c0-1.6-0.35-2.85-1.04-3.75C233.64,22.71,232.68,22.26,231.45,22.26z"/>
		<path class="st3" d="M243.54,35.21l-5.33-13.8h1.3l3.57,9.39c0.47,1.2,0.83,2.25,1.07,3.15h0.08c0.35-1.15,0.7-2.21,1.07-3.17
			l3.57-9.36h1.3l-5.33,13.8H243.54z"/>
		<path class="st3" d="M258.03,35.46c-2.01,0-3.57-0.62-4.69-1.85c-1.12-1.24-1.68-2.97-1.68-5.19c0-2.2,0.54-3.96,1.63-5.29
			c1.08-1.32,2.54-1.99,4.38-1.99c1.63,0,2.91,0.57,3.85,1.7c0.94,1.13,1.41,2.67,1.41,4.62v1.02h-9.94
			c0.02,1.9,0.46,3.34,1.33,4.34c0.87,1,2.11,1.5,3.73,1.5c0.79,0,1.48-0.06,2.08-0.17c0.6-0.11,1.35-0.35,2.27-0.71v1.14
			c-0.78,0.34-1.5,0.57-2.16,0.69C259.56,35.4,258.83,35.46,258.03,35.46z M257.66,22.26c-1.33,0-2.4,0.44-3.2,1.31
			c-0.8,0.88-1.27,2.14-1.41,3.79h8.53c0-1.6-0.35-2.85-1.04-3.75C259.85,22.71,258.89,22.26,257.66,22.26z"/>
		<path class="st3" d="M267.99,35.21h-1.26V15.45h1.26V35.21z"/>
		<path class="st3" d="M284.03,28.29c0,2.25-0.55,4.01-1.64,5.28s-2.6,1.9-4.52,1.9c-1.21,0-2.28-0.29-3.2-0.88
			s-1.63-1.42-2.12-2.51c-0.49-1.09-0.74-2.35-0.74-3.78c0-2.25,0.55-4.01,1.64-5.26c1.09-1.26,2.59-1.89,4.5-1.89
			c1.9,0,3.38,0.64,4.46,1.91C283.49,24.32,284.03,26.07,284.03,28.29z M273.13,28.29c0,1.9,0.42,3.38,1.25,4.44
			c0.83,1.06,2.01,1.59,3.54,1.59s2.7-0.53,3.54-1.59c0.83-1.06,1.25-2.54,1.25-4.44c0-1.91-0.42-3.38-1.26-4.43
			c-0.84-1.05-2.03-1.57-3.55-1.57s-2.7,0.52-3.52,1.57C273.55,24.9,273.13,26.37,273.13,28.29z"/>
		<path class="st3" d="M293.76,35.46c-2.13,0-3.67-0.8-4.65-2.39h-0.09l0.04,1.07c0.03,0.63,0.05,1.31,0.05,2.06v5.26h-1.26V21.4
			h1.07l0.24,1.97h0.08c0.95-1.49,2.46-2.24,4.55-2.24c1.86,0,3.28,0.61,4.26,1.83c0.98,1.22,1.47,3,1.47,5.34
			c0,2.27-0.51,4.03-1.54,5.28C296.94,34.84,295.53,35.46,293.76,35.46z M293.73,34.35c1.41,0,2.51-0.53,3.28-1.58
			c0.77-1.05,1.16-2.52,1.16-4.41c0-4.06-1.46-6.08-4.39-6.08c-1.61,0-2.79,0.44-3.54,1.33s-1.13,2.33-1.13,4.32v0.41
			c0,2.16,0.36,3.7,1.09,4.62C290.92,33.88,292.1,34.35,293.73,34.35z"/>
		<path class="st3" d="M320.58,35.21v-9.05c0-1.35-0.26-2.33-0.79-2.95c-0.53-0.62-1.33-0.93-2.41-0.93c-1.41,0-2.46,0.39-3.14,1.17
			c-0.68,0.78-1.02,2-1.02,3.67v8.09h-1.28v-9.44c0-2.33-1.07-3.49-3.2-3.49c-1.45,0-2.5,0.42-3.16,1.26
			c-0.66,0.84-0.99,2.19-0.99,4.04v7.62h-1.26V21.4h1.04l0.27,1.89h0.08c0.38-0.69,0.92-1.22,1.63-1.59
			c0.7-0.38,1.48-0.57,2.32-0.57c2.18,0,3.57,0.82,4.19,2.45h0.05c0.45-0.79,1.05-1.39,1.81-1.82c0.76-0.42,1.62-0.63,2.58-0.63
			c1.51,0,2.64,0.4,3.39,1.21c0.75,0.8,1.13,2.08,1.13,3.83v9.03H320.58z"/>
		<path class="st3" d="M331.87,35.46c-2.01,0-3.57-0.62-4.69-1.85c-1.12-1.24-1.68-2.97-1.68-5.19c0-2.2,0.54-3.96,1.63-5.29
			c1.08-1.32,2.54-1.99,4.38-1.99c1.63,0,2.91,0.57,3.85,1.7c0.94,1.13,1.41,2.67,1.41,4.62v1.02h-9.94
			c0.02,1.9,0.46,3.34,1.33,4.34c0.87,1,2.11,1.5,3.73,1.5c0.79,0,1.48-0.06,2.08-0.17c0.6-0.11,1.35-0.35,2.27-0.71v1.14
			c-0.78,0.34-1.5,0.57-2.16,0.69C333.39,35.4,332.66,35.46,331.87,35.46z M331.5,22.26c-1.33,0-2.4,0.44-3.2,1.31
			c-0.8,0.88-1.27,2.14-1.41,3.79h8.53c0-1.6-0.35-2.85-1.04-3.75C333.69,22.71,332.73,22.26,331.5,22.26z"/>
		<path class="st3" d="M350.19,35.21v-8.95c0-1.39-0.29-2.4-0.88-3.03c-0.58-0.63-1.49-0.95-2.72-0.95c-1.65,0-2.86,0.42-3.63,1.25
			s-1.15,2.19-1.15,4.06v7.62h-1.26V21.4h1.07l0.24,1.89h0.08c0.9-1.44,2.49-2.16,4.79-2.16c3.13,0,4.7,1.68,4.7,5.04v9.03H350.19z"
			/>
		<path class="st3" d="M359.55,34.35c0.8,0,1.49-0.07,2.08-0.2v1.02c-0.61,0.2-1.31,0.3-2.11,0.3c-1.22,0-2.12-0.33-2.7-0.98
			c-0.58-0.65-0.87-1.68-0.87-3.07V22.5h-2.04v-0.74l2.04-0.57l0.63-3.12h0.65v3.34h4.05v1.09h-4.05v8.74
			c0,1.06,0.19,1.84,0.56,2.35C358.17,34.09,358.76,34.35,359.55,34.35z"/>
	</g>
</g>
<g id="Ebene_2" class="st4">
	<rect x="21.14" y="-27.72" class="st5" width="27.34" height="27.79"/>
	<rect x="21.14" y="55.64" class="st5" width="27.34" height="27.79"/>
	<rect x="-27.1" y="16.16" class="st5" width="27.34" height="27.79"/>
	<rect x="361.65" y="16.16" class="st5" width="27.34" height="27.79"/>
</g>
</svg>
